<?xml version="1.0" encoding="utf-8"?>
<svg viewBox="649.7 205.051 499.998 500" xmlns="http://www.w3.org/2000/svg">
  <ellipse style="stroke-width: 0px; fill: rgb(44, 44, 44);" cx="899.699" cy="455.051" rx="249.999" ry="250" transform="matrix(1, 0, 0, 1, 1.1368683772161603e-13, 0)"/>
  <ellipse style="stroke-width: 0px; fill: rgb(1, 91, 168);" cx="903.078" cy="455.051" rx="210.272" ry="210.273" transform="matrix(1, 0, 0, 1, 1.1368683772161603e-13, 0)"/>
  <path style="fill: rgb(216, 216, 216); stroke: rgb(0, 0, 0); stroke-width: 12px;" d="M 760.586 615.829 C 760.586 615.829 769.577 554.281 807.075 507.529 C 818.7 493.036 853.892 465.961 877.993 448.157 C 891.806 437.953 905.406 397.624 905.406 397.624 C 905.406 397.624 916.199 418.171 925.141 408.842 C 944.575 388.569 962.997 363.386 936.233 363.208 C 924.673 363.131 951.738 331.744 951.738 331.744 L 983.783 297.64 C 983.783 297.64 995.696 342.187 993.801 372.639 C 993.303 380.643 990.436 406.719 990.436 406.719 C 980.399 433.69 910.627 668.799 910.627 668.799 L 895.836 666.772 C 895.836 666.772 956.223 432.015 962.127 423.715 C 968.067 415.365 896.522 475.622 869.135 508.403 C 828.861 556.61 814.807 585.063 808.186 645.669" transform="matrix(1, 0, 0, 1, 1.1368683772161603e-13, 0)"/>
</svg>