<?xml version="1.0" encoding="utf-8"?>
<svg viewBox="0.001 0 499.998 500" xmlns="http://www.w3.org/2000/svg">
  <ellipse style="stroke-width: 0px; fill: rgb(44, 44, 44);" cx="250" cy="250" rx="249.999" ry="250"/>
  <ellipse style="stroke-width: 0px; fill: rgb(1, 91, 168);" cx="250" cy="250" rx="210.272" ry="210.273"/>
  <path style="fill: rgb(216, 216, 216); stroke: rgb(0, 0, 0); stroke-width: 12px;" d="M 286.626 452.069 C 286.626 452.069 304.32 424.63 300.891 383.027 C 297.824 345.817 280.092 312.421 280.398 311.886 C 281.045 310.752 258.853 292.077 241.123 297.038 C 227.526 300.843 222.014 314.76 214.959 320.912 C 205.878 328.832 193.645 334.403 180.688 331.621 C 156.908 326.516 145.944 303.873 150.88 283.5 C 156.058 262.123 176.489 261.802 193.865 245.585 C 203.485 236.607 203.027 221.615 208.395 206.783 C 214.151 190.876 235.651 176.218 235.528 175.756 C 235.428 175.384 234.789 170.303 234.933 165.836 C 235.135 159.555 234.82 153.268 236.603 152.609 C 239.224 151.641 244.709 156.149 248.661 159.18 C 254.232 163.452 259.46 169.283 259.894 169.166 C 260.349 169.044 258.344 155.326 261.048 142.74 C 263.557 131.06 265.044 119.263 269.845 116.865 C 274.602 114.489 296.354 135.135 296.354 135.135 L 312.785 156.402 C 312.785 156.402 333.052 162.513 348.683 168.407 L 310.096 102.929 L 436.759 177.574 L 391.774 166.234 L 449.821 224.281 L 431.448 242.654 C 431.448 242.654 445.429 267.913 451.276 286.46 C 461.314 318.299 418.52 374.647 411.221 385.942 C 383.841 428.315 286.626 452.069 286.626 452.069 Z"/>
</svg>