<?xml version="1.0" encoding="utf-8"?>
<svg viewBox="120.7276 129.4885 257.5156 246.63" xmlns="http://www.w3.org/2000/svg">
  <g transform="matrix(0.9999999999999999, 0, 0, 1, 41.4330052237915, -27.832432986610655)">
    <path d="M 109.101 340.497 L 312.419 340.497 L 312.419 381.323 C 312.419 381.323 291.626 403.951 210.281 403.951 C 125.223 403.951 109.101 381.323 109.101 381.323 L 109.101 340.497 Z" style="stroke-width: 8px; stroke: rgb(214, 146, 20); fill: rgb(240, 167, 32);"/>
    <path d="M 312.331 340.821 C 312.331 359.713 266.773 375.028 210.576 375.028 C 154.378 375.028 108.821 359.713 108.821 340.821 C 108.821 321.929 154.378 306.614 210.576 306.614 C 266.773 306.614 312.331 321.929 312.331 340.821 Z" style="stroke-width: 8px; stroke: rgb(214, 146, 20); fill: rgb(255, 228, 69);"/>
    <path style="fill: rgb(255, 239, 140);" d="M 206.999 310.677 L 284.958 360.105 C 284.958 360.105 302.207 353.968 306.361 346.166 C 307.913 343.251 309.699 339.45 307.017 335.667 C 302.002 328.593 290.066 323.281 281.644 320.192 C 259.602 312.108 207.589 309.053 206.999 310.677 Z"/>
    <path style="fill: rgb(255, 239, 140);" d="M 176.13 312.512 L 261.844 366.284 L 242.627 369.294 L 223.503 370.97 L 153.205 316.674 L 176.13 312.512 Z"/>
    <path style="fill: rgb(246, 176, 46);" d="M 225.018 378.675 L 225.358 399.797 C 225.358 399.797 236.639 399.178 246.997 398.11 C 256.928 397.086 265.953 395.613 265.953 395.537 C 265.953 395.382 264.389 373.953 264.389 373.953 C 264.389 373.953 252.749 375.942 246.966 376.625 C 239.677 377.486 225.018 378.675 225.018 378.675 Z"/>
    <path style="fill: rgb(246, 176, 46);" d="M 288.009 367.204 C 288.009 367.204 288.972 389.325 288.972 389.408 C 288.972 389.45 294.451 387.747 299.358 385.256 C 304.241 382.777 308.552 379.511 308.593 379.511 C 308.676 379.511 308.361 356.147 308.361 356.147 C 308.361 356.147 303.292 359.944 298.001 362.731 C 293.16 365.281 287.963 367.015 288.009 367.204 Z"/>
  </g>
  <g transform="matrix(0.9999999999999999, 0, 0, 1, 65.82420180270435, -76.93252366131108)">
    <path d="M 109.101 340.497 L 312.419 340.497 L 312.419 381.323 C 312.419 381.323 291.626 403.951 210.281 403.951 C 125.223 403.951 109.101 381.323 109.101 381.323 L 109.101 340.497 Z" style="stroke-width: 8px; stroke: rgb(214, 146, 20); fill: rgb(240, 167, 32);"/>
    <path d="M 312.331 340.821 C 312.331 359.713 266.773 375.028 210.576 375.028 C 154.378 375.028 108.821 359.713 108.821 340.821 C 108.821 321.929 154.378 306.614 210.576 306.614 C 266.773 306.614 312.331 321.929 312.331 340.821 Z" style="stroke-width: 8px; stroke: rgb(214, 146, 20); fill: rgb(255, 228, 69);"/>
    <path style="fill: rgb(255, 239, 140);" d="M 206.999 310.677 L 284.958 360.105 C 284.958 360.105 302.207 353.968 306.361 346.166 C 307.913 343.251 309.699 339.45 307.017 335.667 C 302.002 328.593 290.066 323.281 281.644 320.192 C 259.602 312.108 207.589 309.053 206.999 310.677 Z"/>
    <path style="fill: rgb(255, 239, 140);" d="M 176.13 312.512 L 261.844 366.284 L 242.627 369.294 L 223.503 370.97 L 153.205 316.674 L 176.13 312.512 Z"/>
    <path style="fill: rgb(246, 176, 46);" d="M 225.018 378.675 L 225.358 399.797 C 225.358 399.797 236.639 399.178 246.997 398.11 C 256.928 397.086 265.953 395.613 265.953 395.537 C 265.953 395.382 264.389 373.953 264.389 373.953 C 264.389 373.953 252.749 375.942 246.966 376.625 C 239.677 377.486 225.018 378.675 225.018 378.675 Z"/>
    <path style="fill: rgb(246, 176, 46);" d="M 288.009 367.204 C 288.009 367.204 288.972 389.325 288.972 389.408 C 288.972 389.45 294.451 387.747 299.358 385.256 C 304.241 382.777 308.552 379.511 308.593 379.511 C 308.676 379.511 308.361 356.147 308.361 356.147 C 308.361 356.147 303.292 359.944 298.001 362.731 C 293.16 365.281 287.963 367.015 288.009 367.204 Z"/>
  </g>
  <g transform="matrix(0.9999999999999999, 0, 0, 1, 11.906589202631608, -122.41105337849586)">
    <path d="M 109.101 340.497 L 312.419 340.497 L 312.419 381.323 C 312.419 381.323 291.626 403.951 210.281 403.951 C 125.223 403.951 109.101 381.323 109.101 381.323 L 109.101 340.497 Z" style="stroke-width: 8px; stroke: rgb(214, 146, 20); fill: rgb(240, 167, 32);"/>
    <path d="M 312.331 340.821 C 312.331 359.713 266.773 375.028 210.576 375.028 C 154.378 375.028 108.821 359.713 108.821 340.821 C 108.821 321.929 154.378 306.614 210.576 306.614 C 266.773 306.614 312.331 321.929 312.331 340.821 Z" style="stroke-width: 8px; stroke: rgb(214, 146, 20); fill: rgb(255, 228, 69);"/>
    <path style="fill: rgb(255, 239, 140);" d="M 206.999 310.677 L 284.958 360.105 C 284.958 360.105 302.207 353.968 306.361 346.166 C 307.913 343.251 309.699 339.45 307.017 335.667 C 302.002 328.593 290.066 323.281 281.644 320.192 C 259.602 312.108 207.589 309.053 206.999 310.677 Z"/>
    <path style="fill: rgb(255, 239, 140);" d="M 176.13 312.512 L 261.844 366.284 L 242.627 369.294 L 223.503 370.97 L 153.205 316.674 L 176.13 312.512 Z"/>
    <path style="fill: rgb(246, 176, 46);" d="M 225.018 378.675 L 225.358 399.797 C 225.358 399.797 236.639 399.178 246.997 398.11 C 256.928 397.086 265.953 395.613 265.953 395.537 C 265.953 395.382 264.389 373.953 264.389 373.953 C 264.389 373.953 252.749 375.942 246.966 376.625 C 239.677 377.486 225.018 378.675 225.018 378.675 Z"/>
    <path style="fill: rgb(246, 176, 46);" d="M 288.009 367.204 C 288.009 367.204 288.972 389.325 288.972 389.408 C 288.972 389.45 294.451 387.747 299.358 385.256 C 304.241 382.777 308.552 379.511 308.593 379.511 C 308.676 379.511 308.361 356.147 308.361 356.147 C 308.361 356.147 303.292 359.944 298.001 362.731 C 293.16 365.281 287.963 367.015 288.009 367.204 Z"/>
  </g>
  <g transform="matrix(0.9999999999999999, 0, 0, 1, 60.532041904277776, -177.12548373766984)">
    <path d="M 109.101 340.497 L 312.419 340.497 L 312.419 381.323 C 312.419 381.323 291.626 403.951 210.281 403.951 C 125.223 403.951 109.101 381.323 109.101 381.323 L 109.101 340.497 Z" style="stroke-width: 8px; stroke: rgb(214, 146, 20); fill: rgb(240, 167, 32);"/>
    <path d="M 312.331 340.821 C 312.331 359.713 266.773 375.028 210.576 375.028 C 154.378 375.028 108.821 359.713 108.821 340.821 C 108.821 321.929 154.378 306.614 210.576 306.614 C 266.773 306.614 312.331 321.929 312.331 340.821 Z" style="stroke-width: 8px; stroke: rgb(214, 146, 20); fill: rgb(255, 228, 69);"/>
    <path style="fill: rgb(255, 239, 140);" d="M 206.999 310.677 L 284.958 360.105 C 284.958 360.105 302.207 353.968 306.361 346.166 C 307.913 343.251 309.699 339.45 307.017 335.667 C 302.002 328.593 290.066 323.281 281.644 320.192 C 259.602 312.108 207.589 309.053 206.999 310.677 Z"/>
    <path style="fill: rgb(255, 239, 140);" d="M 176.13 312.512 L 261.844 366.284 L 242.627 369.294 L 223.503 370.97 L 153.205 316.674 L 176.13 312.512 Z"/>
    <path style="fill: rgb(246, 176, 46);" d="M 225.018 378.675 L 225.358 399.797 C 225.358 399.797 236.639 399.178 246.997 398.11 C 256.928 397.086 265.953 395.613 265.953 395.537 C 265.953 395.382 264.389 373.953 264.389 373.953 C 264.389 373.953 252.749 375.942 246.966 376.625 C 239.677 377.486 225.018 378.675 225.018 378.675 Z"/>
    <path style="fill: rgb(246, 176, 46);" d="M 288.009 367.204 C 288.009 367.204 288.972 389.325 288.972 389.408 C 288.972 389.45 294.451 387.747 299.358 385.256 C 304.241 382.777 308.552 379.511 308.593 379.511 C 308.676 379.511 308.361 356.147 308.361 356.147 C 308.361 356.147 303.292 359.944 298.001 362.731 C 293.16 365.281 287.963 367.015 288.009 367.204 Z"/>
  </g>
</svg>