<?xml version="1.0" encoding="utf-8"?>
<svg viewBox="0.001 0 499.998 500" xmlns="http://www.w3.org/2000/svg">
  <ellipse style="stroke-width: 0px; fill: rgb(44, 44, 44);" cx="250" cy="250" rx="249.999" ry="250"/>
  <ellipse style="stroke-width: 0px; fill: rgb(57, 151, 0);" cx="250" cy="250" rx="210.272" ry="210.273"/>
  <path style="fill: rgb(216, 216, 216); stroke: rgb(0, 0, 0); stroke-width: 12px;" d="M 110.887 410.778 C 110.887 410.778 119.878 349.23 157.376 302.478 C 175.663 279.678 238.504 237.523 252.276 225.743 C 268.356 211.988 327.662 156.368 288.583 156.108 C 277.023 156.031 269.694 135.2 267.087 127.721 C 262.589 114.811 274.264 104.689 286.796 101.841 C 316.549 95.08 345.997 137.136 344.102 167.588 C 343.604 175.592 340.737 201.668 340.737 201.668 C 330.7 228.639 260.928 463.748 260.928 463.748 L 246.137 461.721 C 246.137 461.721 306.524 226.964 312.428 218.664 C 318.368 210.314 246.823 270.571 219.436 303.352 C 179.162 351.559 165.108 380.012 158.487 440.618"/>
</svg>