<?xml version="1.0" encoding="utf-8"?>
<svg viewBox="0.001 0 499.998 500" xmlns="http://www.w3.org/2000/svg">
  <ellipse style="stroke-width: 0px; fill: rgb(44, 44, 44);" cx="250" cy="250" rx="249.999" ry="250" transform="matrix(0.9999999999999999, 0, 0, 0.9999999999999999, 0, 2.2737367544323206e-13)"/>
  <ellipse style="stroke-width: 0px; fill: rgb(57, 151, 0);" cx="250" cy="250" rx="210.272" ry="210.273" transform="matrix(0.9999999999999999, 0, 0, 0.9999999999999999, 0, 2.2737367544323206e-13)"/>
  <path style="fill: rgb(216, 216, 216); stroke: rgb(0, 0, 0); stroke-width: 12px;" d="M 260.247 463.949 C 260.247 463.949 282.916 422.529 290.372 381.456 C 297.04 344.72 288.555 307.873 288.989 307.435 C 289.908 306.507 273.305 282.725 254.896 282.928 C 240.777 283.084 231.851 295.1 223.444 299.217 C 212.623 304.517 199.365 306.732 187.569 300.691 C 165.921 289.605 161.191 264.896 171.231 246.495 C 181.766 227.186 201.584 232.164 222.565 220.997 C 234.181 214.815 237.619 200.215 246.642 187.278 C 256.319 173.403 280.881 164.809 280.881 164.331 C 280.881 163.945 281.579 158.872 282.874 154.595 C 284.695 148.58 286.018 142.426 287.911 142.251 C 290.693 141.994 294.824 147.768 297.857 151.719 C 302.132 157.287 305.673 164.272 306.123 164.272 C 306.594 164.272 308.208 150.502 314.077 139.045 C 319.523 128.412 324.013 117.402 329.271 116.328 C 334.481 115.264 350.148 140.837 350.148 140.837 L 360.515 165.632 C 360.515 165.632 401.026 190.728 406.327 198.509 C 412.446 207.49 447.956 259.941 450.702 322.863 C 452.157 356.215 406.161 403.806 396.188 412.827 C 358.774 446.67 260.247 463.949 260.247 463.949 Z" transform="matrix(0.9999999999999999, 0, 0, 0.9999999999999999, 0, 2.2737367544323206e-13)"/>
</svg>