<?xml version="1.0" encoding="utf-8"?>
<svg viewBox="0.001 0 499.998 500" xmlns="http://www.w3.org/2000/svg">
  <ellipse style="stroke-width: 0px; fill: rgb(44, 44, 44);" cx="250" cy="250" rx="249.999" ry="250"/>
  <ellipse style="stroke-width: 0px; fill: rgb(57, 151, 0);" cx="250" cy="250" rx="210.272" ry="210.273"/>
  <path d="M 318.309 76.385 C 324.646 75.294 370.13 105.111 371.494 112.607 C 372.713 119.314 367.708 124.644 362.429 125.366 C 359.313 125.793 343.968 116.87 343.968 116.87 L 323.602 146.772 C 345.673 162.299 365.065 177.135 366.03 180.223 C 368.303 187.468 359.942 200.84 351.931 200.908 C 348.816 200.935 336.514 193.983 321.261 184.405 L 205.869 389.459 L 135.282 402.46 L 121.528 332.016 L 269.739 149.931 C 255.357 139.75 244.687 131.598 243.919 129.795 C 241.382 123.833 251.283 106.994 259.001 106.907 C 262.999 106.862 282.79 119.016 304.287 133.48 L 324.589 103.673 C 324.589 103.673 309.678 91.95 309.074 89.397 C 307.948 84.639 313.057 77.288 318.309 76.385 Z" style="stroke: rgb(0, 0, 0); fill: rgb(216, 216, 216); stroke-width: 12px; transform-origin: 249px 235.404px;"/>
</svg>