<?xml version="1.0" encoding="utf-8"?>
<svg viewBox="124.5155 111.1404 250.9683 277.7189" xmlns="http://www.w3.org/2000/svg">
  <rect x="335.103" y="209.564" width="34.231" height="56.854" style="stroke-width: 14px; fill: rgb(80, 64, 54); stroke: rgba(59, 43, 33, 0.976); stroke-linejoin: round; stroke-linecap: round; transform-origin: 352.218px 237.991px;" transform="matrix(0.866025090218, 0.5, -0.5, 0.866025090218, -42.489795159318, -89.239299322942)"/>
  <path d="M 328.485 286.542 C 328.485 329.888 293.346 365.027 250 365.027 C 206.654 365.027 171.514 329.888 171.514 286.542 C 171.514 250.228 196.176 219.675 229.664 210.716 L 227.664 134.972 L 272.337 134.972 L 270.337 210.716 C 303.824 219.675 328.485 250.228 328.485 286.542 Z" style="stroke-width: 18px; stroke-linecap: square; stroke: rgb(47, 68, 103); fill: rgba(134, 154, 187, 0.714); stroke-linejoin: round; transform-origin: 249.999px 250px;" transform="matrix(0.866025090218, 0.5, -0.5, 0.866025090218, 0.000016089538, 0.000008821487)"/>
  <path d="M 301.528 282.077 C 301.528 301.365 293.71 318.826 281.069 331.465 C 268.431 344.106 250.968 351.923 231.68 351.923 C 212.394 351.923 194.931 344.106 182.292 331.465 C 169.652 318.826 161.833 301.365 161.833 282.077 C 161.833 272.592 188.512 292.993 229.949 267.615 C 260.215 249.079 301.528 272.274 301.528 282.077 Z" style="fill: rgb(24, 75, 161);"/>
  <ellipse style="fill: rgba(185, 198, 220, 0.596);" cx="203.388" cy="264.76" rx="44.05" ry="44.05"/>
</svg>