<?xml version="1.0" encoding="utf-8"?>
<svg viewBox="0.001 0 499.998 500" xmlns="http://www.w3.org/2000/svg">
  <ellipse style="stroke-width: 0px; fill: rgb(44, 44, 44);" cx="250" cy="250" rx="249.999" ry="250" transform="matrix(1, 0, 0, 1, 0, 2.842170943040401e-14)"/>
  <ellipse style="stroke-width: 0px; fill: rgb(129, 1, 159);" cx="250" cy="250" rx="210.272" ry="210.273" transform="matrix(1, 0, 0, 1, 0, 2.842170943040401e-14)"/>
  <path style="fill: rgb(216, 216, 216); stroke: rgb(0, 0, 0); stroke-width: 12px;" d="M 110.887 410.778 L 119.555 383.237 C 119.555 383.237 107.283 373.746 104.268 367.168 C 101.618 361.385 101.86 346.278 101.86 346.278 L 127.223 356.007 C 127.223 356.007 145.84 316.861 157.376 302.478 C 162.514 296.072 198.037 265.037 198.037 265.037 L 174.59 243.21 C 174.59 243.21 191.822 237.913 200.443 239.652 C 207.835 241.143 228.238 243.375 228.238 243.375 C 228.238 243.375 249.08 228.477 252.276 225.743 C 256.205 222.382 190.716 205.379 197.74 198.437 C 201.434 194.787 218.519 186.758 236.369 187.216 C 252.022 187.618 268.262 195.67 276.574 193.062 C 292.845 187.956 299.699 173.601 301.138 168.218 C 301.88 165.444 267.014 163.726 267.014 163.726 C 267.014 163.726 287.504 142.51 293.109 132.857 C 299.523 121.813 303.486 101.841 303.486 101.841 C 303.486 101.841 345.997 137.136 344.102 167.588 C 343.604 175.592 340.737 201.668 340.737 201.668 C 330.7 228.639 260.928 463.748 260.928 463.748 L 246.137 461.721 C 246.137 461.721 306.524 226.964 312.428 218.664 C 318.368 210.314 246.823 270.571 219.436 303.352 C 179.162 351.559 165.108 380.012 158.487 440.618" transform="matrix(1, 0, 0, 1, 0, 2.842170943040401e-14)"/>
</svg>