<?xml version="1.0" encoding="utf-8"?>
<svg viewBox="0.001 0 499.998 500" xmlns="http://www.w3.org/2000/svg">
  <ellipse style="stroke-width: 0px; fill: rgb(44, 44, 44);" cx="250" cy="250" rx="249.999" ry="250"/>
  <ellipse style="stroke-width: 0px; fill: rgb(129, 1, 159);" cx="250" cy="250" rx="210.272" ry="210.273"/>
  <path d="M 277.335 64.656 C 287.42 58.846 295.345 70.423 295.345 70.423 C 295.345 70.423 330.653 133.361 348.323 168.187 C 366.097 203.217 401.488 279.699 401.488 279.699 C 401.488 279.699 352.949 210.808 331.5 177.9 C 318.085 157.319 298.525 125.129 285.861 104.082 L 351.501 321.729 C 351.73 321.725 351.959 321.723 352.189 321.723 C 356.562 321.723 366.459 324.198 366.459 324.198 C 382.734 330.047 394.373 345.617 394.373 363.907 C 394.373 387.205 375.487 406.091 352.189 406.091 C 329.186 406.091 310.484 387.68 310.014 364.789 L 193.053 364.789 C 193.066 365.22 193.073 365.653 193.073 366.088 C 193.073 389.386 174.187 408.272 150.889 408.272 C 127.591 408.272 108.617 389.386 108.705 366.088 C 108.845 329.106 138.349 323.623 138.349 323.623 L 182.933 323.623 L 186.367 310.806 L 121.476 310.968 L 93.74 247.982 L 184.287 189.018 L 219.023 188.931 L 253.29 91.044 L 265.637 72.485 L 271.63 76.963 C 271.16 72.904 271.904 67.785 277.335 64.656 Z M 325.685 323.623 L 267.47 136.359 L 245.363 188.864 L 270.162 188.802 L 258.673 276.466 L 213.872 306.397 L 209.256 323.623 L 325.685 323.623 Z" style="fill: rgb(216, 216, 216); stroke: rgb(0, 0, 0); stroke-width: 12px;"/>
</svg>