<?xml version="1.0" encoding="utf-8"?>
<svg viewBox="0.001 0 499.998 500" xmlns="http://www.w3.org/2000/svg">
  <ellipse style="stroke-width: 0px; fill: rgb(44, 44, 44);" cx="250" cy="250" rx="249.999" ry="250" transform="matrix(1, 0, 0, 1, 0, -2.842170943040401e-14)"/>
  <ellipse style="stroke-width: 0px; fill: rgb(129, 1, 159);" cx="244.357" cy="248.388" rx="210.272" ry="210.273" transform="matrix(1, 0, 0, 1, 0, -2.842170943040401e-14)"/>
  <path style="stroke: rgb(0, 0, 0); stroke-width: 12px; fill: rgb(44, 29, 47); transform-origin: 308.463px 281.134px;" d="M 272.827 445.972 C 272.827 445.972 282.916 422.529 290.372 381.456 C 297.04 344.72 288.555 307.873 288.989 307.435 C 289.908 306.507 273.305 282.725 254.896 282.928 C 240.777 283.084 231.851 295.1 223.444 299.217 C 212.623 304.517 199.365 306.732 187.569 300.691 C 165.921 289.605 161.191 264.896 171.231 246.495 C 181.766 227.186 201.584 232.164 222.565 220.997 C 234.181 214.815 237.619 200.215 246.642 187.278 C 256.319 173.403 280.881 164.809 280.881 164.331 C 280.881 163.945 281.579 158.872 282.874 154.595 C 284.695 148.58 286.018 142.426 287.911 142.251 C 290.693 141.994 294.824 147.768 297.857 151.719 C 302.132 157.287 305.673 164.272 306.123 164.272 C 306.594 164.272 308.208 150.502 314.077 139.045 C 319.523 128.412 324.013 117.402 329.271 116.328 C 334.481 115.264 350.148 140.837 350.148 140.837 L 360.515 165.632 C 360.515 165.632 401.026 190.728 406.327 198.509 C 412.446 207.49 447.956 259.941 450.702 322.863 C 452.157 356.215 400.845 397.034 390.872 406.055 C 353.458 439.898 272.827 445.972 272.827 445.972 Z" transform="matrix(0.965926110744, -0.258819013834, 0.258819013834, 0.965926110744, -2.32630988085, 0.306737056407)"/>
  <path style="fill: rgb(239, 239, 239);" d="M 239.445 279.393 C 226.375 265.489 233.172 229.273 246.536 209.497 C 261.676 187.092 291.192 173.965 318.437 173.324 C 333.93 172.96 353.292 176.131 360.318 190.762 C 369.441 209.759 343.425 246.345 343.425 246.345 C 343.425 246.345 328.613 273.07 314.407 278.094 C 299.951 283.206 284.423 272.698 269.268 273.513 C 259.052 274.062 242.207 282.331 239.445 279.393 Z" transform="matrix(1, 0, 0, 1, 0, -2.842170943040401e-14)"/>
  <path style="fill: rgb(239, 239, 239);" d="M 185.8 307.393 C 180.602 299.255 185.564 279.252 193.5 273.751 C 201.937 267.902 207.227 258.502 217.006 264.633 C 230.142 272.869 231.811 292.094 224.241 304.965 C 220.345 311.589 192.418 317.755 185.8 307.393 Z" transform="matrix(1, 0, 0, 1, 0, -2.842170943040401e-14)"/>
  <path style="fill: rgb(239, 239, 239);" d="M 340.201 303.574 C 363.965 282.494 377.124 224.716 387.748 218.147 C 395.988 213.052 406.532 229.191 404.766 234.032 C 403 238.873 387.942 301.941 360.835 327.432 C 352.467 335.301 333.412 339.872 328.696 338.234 C 321.416 335.705 309.37 321.634 312.959 312.282 C 316.375 303.382 332.884 310.064 340.201 303.574 Z" transform="matrix(1, 0, 0, 1, 0, -2.842170943040401e-14)"/>
  <path style="fill: rgb(239, 239, 239); transform-origin: 416.369px 308.588px;" d="M 419.09 273.414 C 424.107 265.919 435.674 276.329 434.857 287.588 C 433.738 303.008 431.562 324.185 423.089 341.584 C 418.832 350.325 398.913 345.755 397.992 337.319 C 396.246 321.33 409.926 287.105 419.09 273.414 Z" transform="matrix(0.991826117039, 0.127593979239, -0.127593979239, 0.991826117039, 0.000031478144, 0.000005686249)"/>
  <path style="fill: rgb(239, 239, 239);" d="M 349.864 371.76 C 357.34 360.503 368.046 344.439 381.374 348.303 C 394.068 351.984 395.81 370.069 394.748 375.36 C 393.533 381.413 361.241 406.683 341.554 409.871 C 327.59 412.132 342.038 383.544 349.864 371.76 Z" transform="matrix(1, 0, 0, 1, 0, -2.842170943040401e-14)"/>
  <path style="fill: rgb(44, 29, 47);" d="M 261.926 231.341 C 263.39 223.757 269.377 218.089 275.921 213.23 C 282.192 208.573 299.976 197.14 299.689 205.719 C 299.614 207.987 300.773 215.048 297.093 219.88 C 290.068 229.104 273.75 243.246 265.389 243.802 C 261.125 244.086 261.108 235.58 261.926 231.341 Z" transform="matrix(1, 0, 0, 1, 0, -2.842170943040401e-14)"/>
</svg>