<?xml version="1.0" encoding="utf-8"?>
<svg viewBox="0.001 0 499.998 500" xmlns="http://www.w3.org/2000/svg">
  <ellipse style="stroke-width: 0px; fill: rgb(44, 44, 44);" cx="250" cy="250" rx="249.999" ry="250" transform="matrix(1, 0, 0, 1, 2.2737367544323206e-13, 0)"/>
  <ellipse style="stroke-width: 0px; fill: rgb(186, 66, 18);" cx="250" cy="250" rx="210.272" ry="210.273" transform="matrix(1, 0, 0, 1, 2.2737367544323206e-13, 0)"/>
  <path style="fill: rgb(216, 216, 216); stroke: rgb(0, 0, 0); stroke-width: 12px;" d="M 91.715 394.162 C 91.715 394.162 108.4 302.46 146.797 256.444 C 178.672 218.244 273.706 194.349 273.706 194.349 L 297.02 185.336 L 297.536 176.508 L 311.435 171.58 C 311.435 171.58 313.007 163.492 310.517 161.198 C 296.603 148.375 254.258 170.052 254.258 170.052 L 269.929 138.711 L 318.124 119.264 C 318.124 119.264 345.997 137.136 344.102 167.588 C 343.604 175.592 340.737 201.668 340.737 201.668 C 330.7 228.639 260.928 463.748 260.928 463.748 L 246.137 461.721 C 246.137 461.721 306.524 226.964 312.428 218.664 C 318.368 210.314 206.607 247.864 180.337 279.727 C 153.737 311.99 138.315 337.661 125.353 422.726" transform="matrix(1, 0, 0, 1, 2.2737367544323206e-13, 0)"/>
</svg>