<?xml version="1.0" encoding="utf-8"?>
<svg viewBox="0.001 0 499.998 500" xmlns="http://www.w3.org/2000/svg">
  <ellipse style="stroke-width: 0px; fill: rgb(44, 44, 44);" cx="250" cy="250" rx="249.999" ry="250" transform="matrix(1, 0, 0, 1, 1.1368683772161603e-13, 0)"/>
  <ellipse style="stroke-width: 0px; fill: rgb(186, 66, 18);" cx="250" cy="250" rx="210.272" ry="210.273" transform="matrix(1, 0, 0, 1, 1.1368683772161603e-13, 0)"/>
  <path style="fill: rgb(216, 216, 216); stroke: rgb(0, 0, 0); stroke-width: 12px;" d="M 296.112 452.035 C 296.112 452.035 303.229 426.674 301.003 384.989 C 299.011 347.706 282.25 313.812 282.571 313.286 C 283.251 312.171 261.607 292.864 243.742 297.31 C 230.04 300.721 224.129 314.473 216.899 320.42 C 207.594 328.074 195.205 333.29 182.333 330.135 C 158.711 324.345 148.405 301.395 153.927 281.174 C 159.72 259.954 180.152 260.223 197.989 244.515 C 207.864 235.819 207.839 220.819 213.632 206.149 C 219.845 190.415 241.76 176.383 241.65 175.918 C 241.56 175.543 241.069 170.446 241.341 165.985 C 241.725 159.712 241.592 153.419 243.393 152.812 C 246.041 151.92 251.393 156.584 255.256 159.728 C 260.701 164.159 265.758 170.138 266.196 170.034 C 266.655 169.925 265.046 156.155 268.112 143.652 C 270.957 132.05 272.784 120.3 277.652 118.042 C 282.476 115.804 303.623 137.07 303.623 137.07 L 319.433 158.802 C 319.433 158.802 329.987 162.32 341.681 166.671 L 348.503 151.906 L 366.517 139.328 C 366.517 139.328 369.627 171.183 370.972 171.183 C 372.317 171.183 415.351 160.425 415.351 160.425 L 391.562 200.49 C 394.401 203.687 397.404 207.211 400.489 211.041 L 426.109 183.286 L 431.489 208.838 L 422.072 238.425 L 428.889 253.217 L 450.075 249.262 C 450.075 249.262 441.765 284.933 443.478 290.969 C 452.592 323.085 418.824 377.318 411.203 388.397 C 382.611 429.963 296.112 452.035 296.112 452.035 Z" transform="matrix(1, 0, 0, 1, 1.1368683772161603e-13, 0)"/>
</svg>