<?xml version="1.0" encoding="utf-8"?>
<svg viewBox="0.001 0 499.998 500" xmlns="http://www.w3.org/2000/svg">
  <ellipse style="stroke-width: 0px; fill: rgb(44, 44, 44);" cx="250" cy="250" rx="249.999" ry="250"/>
  <ellipse style="stroke-width: 0px; fill: rgb(186, 66, 18);" cx="250" cy="250" rx="210.272" ry="210.273"/>
  <path d="M 388.519 112.418 C 395.977 117.715 392.771 139.529 392.771 139.529 C 392.771 139.529 368.806 139.08 351.793 148.215 C 339.439 154.85 331.146 174.854 331.146 174.854 C 351.571 189.223 349.862 190.771 350.608 193.671 C 353.409 204.561 345.49 213.955 339.314 212.629 C 333.782 211.442 338.785 215.311 324.67 206.448 C 324.67 206.448 303.732 279.862 285.678 312.028 C 267.931 343.644 239.102 364.062 212.539 375.451 C 180.145 389.341 128.338 377.735 128.338 377.735 L 88.069 344.569 C 86.375 344.757 130.658 356.145 172.425 351.443 C 219.718 346.119 257.828 273.936 257.828 273.936 L 286.522 180.611 C 273.213 171.189 272.961 167.648 272.25 165.979 C 269.902 160.462 272.758 154.59 272.758 154.59 L 286.537 149.327 C 286.537 149.327 299.921 154.335 305.729 158.243 C 305.729 158.243 320.65 128.45 334.369 122.277 C 346.758 116.701 373.561 101.794 388.519 112.418 Z" style="stroke: rgb(0, 0, 0); fill: rgb(216, 216, 216); stroke-width: 12px; transform-origin: 257.798px 253.641px;"/>
</svg>